# Noesis .obj export.
#
mtllib valiant.mtl
g
v  1489.511841 -15986.853516 -1213.577759
v  2004.709961 -15378.027344 -487.260071
v  1319.993774 -15541.120117 -1804.496826
v  1965.998901 -16086.684570 -105.918579
v  1878.485596 -16086.045898 -1434.087280
v  1635.079468 -15621.469727 -1983.119141
v  2468.813965 -15497.115234 -749.068237
v  2535.870850 -16232.006836 -428.979401
v  1910.394775 -16080.642578 -582.659302
v  1776.991821 -16056.879883 -1150.604736
v  1456.065430 -16609.886719 -1208.326416
v  1456.065430 -16609.886719 -1208.326416
v  1776.991821 -16056.879883 -1150.604736
v  1667.538086 -16663.814453 -1328.210327
v  2172.824707 -16147.564453 -731.430969
v  1667.538086 -16663.814453 -1328.210327
v  2338.881104 -14960.561523 -652.601746
v  2145.335205 -15007.191406 -740.412109
v  2336.424805 -15055.920898 -848.740967
v  2795.262451 -14511.565430 255.792938
v  4281.228027 -13565.426758 2146.080322
v  3045.802246 -14575.455078 113.761734
v  6939.696289 -12537.275391 5677.268066
v  7137.666992 -12890.244141 5715.855469
v  4878.175293 -14017.115234 2706.467529
v  6370.711914 -12391.234375 5999.494629
v  4309.152344 -13872.009766 3029.046875
v  6184.766113 -12647.246094 6256.055664
v  3045.802246 -14575.455078 113.761734
v  4878.175293 -14017.115234 2706.467529
v  3215.641113 -15211.752930 311.179169
v  4281.228027 -13565.426758 2146.080322
v  4309.152344 -13872.009766 3029.046875
v  4878.175293 -14017.115234 2706.467529
v  2795.262451 -14511.565430 255.792938
v  2646.656982 -15065.712891 633.405823
v  4281.228027 -13565.426758 2146.080322
v  1759.149414 -15255.902344 -1237.061768
v  808.374390 -14431.797852 -3297.376953
v  1319.993774 -15541.120117 -1804.496826
v  1257.197021 -14095.134766 -2644.643311
v  1059.763550 -14495.904297 -3439.889648
v  1319.993774 -15541.120117 -1804.496826
v  808.374390 -14431.797852 -3297.376953
v  1635.079468 -15621.469727 -1983.119141
v  1257.197021 -14095.134766 -2644.643311
v  1507.736816 -14159.024414 -2786.674561
v  808.374390 -14431.797852 -3297.376953
v  1257.197021 -14095.134766 -2644.643311
v  2010.082275 -15320.629883 -1378.023071
v  1759.149414 -15255.902344 -1237.061768
v  1709.161011 -14885.668945 -1799.179932
v  2083.266357 -14659.447266 -1006.325562
v  2265.042725 -14486.952148 -997.971619
v  1658.064697 -14964.101563 -1619.328979
v  2275.205322 -14708.393555 -1115.135864
v  1850.003784 -15013.047852 -1728.139282
v  1635.079468 -15621.469727 -1983.119141
v  1489.511841 -15986.853516 -1213.577759
v  1319.993774 -15541.120117 -1804.496826
v  1878.485596 -16086.045898 -1434.087280
v  2695.231689 -14881.433594 507.422028
v  2794.493896 -14512.529297 254.870529
v  1635.079468 -15621.469727 -1983.119141
v  2794.493896 -14512.529297 254.870529
v  3045.033691 -14576.418945 112.839317
v  1319.993774 -15541.120117 -1804.496826
v  2535.870850 -16232.006836 -428.979401
v  1965.998901 -16086.684570 -105.918579
v  3045.033691 -14576.418945 112.839317
v  3158.822021 -15000.651367 244.765991
v  2172.824707 -16147.564453 -731.430969
v  1910.394775 -16080.642578 -582.659302
v  3158.822021 -15000.651367 244.765991
v  2695.231689 -14881.433594 507.422028
v  2646.656982 -15065.712891 633.405823
v  2460.711182 -15321.723633 889.966858
v  4878.175293 -14017.115234 2706.467529
v  6939.696289 -12537.275391 5677.268066
v  6939.696289 -12537.275391 5677.268066
v  6184.766113 -12647.246094 6256.055664
v  7137.666992 -12890.244141 5715.855469
v  6370.711914 -12391.234375 5999.494629
v  2657.793945 -15675.410156 929.388611
v  6381.887695 -12999.997070 6295.124512
v  6381.887695 -12999.997070 6295.124512
v  6951.759277 -13145.320313 5972.063965
v  3227.627441 -15821.667969 606.680481
v  6951.759277 -13145.320313 5972.063965
v  6951.759277 -13145.320313 5972.063965
v  3413.573242 -15565.656250 350.119476
v  3227.627441 -15821.667969 606.680481
v  2661.673096 -15869.023438 1023.324402
v  3492.557129 -15585.797852 305.343536
v  2381.727295 -15301.582031 934.742798
v  3231.545166 -16014.345703 700.263550
v  2661.673096 -15869.023438 1023.324402
v  1691.895386 -15796.890625 -59.300663
v  1971.841064 -16364.332031 29.280943
v  2381.727295 -15301.582031 934.742798
v  3231.545166 -16014.345703 700.263550
v  2541.674561 -16510.589844 -293.427155
v  3492.557129 -15585.797852 305.343536
v  2541.674561 -16510.589844 -293.427155
v  2802.725098 -16081.106445 -688.699890
v  3231.545166 -16014.345703 700.263550
v  3212.277100 -15013.962891 214.195984
v  2642.405029 -14868.640625 537.256836
v  3212.277100 -15013.962891 214.195984
v  2522.406738 -15510.207031 -779.494751
v  2642.405029 -14868.640625 537.256836
v  2522.406738 -15510.207031 -779.494751
v  1952.573120 -15363.949219 -456.786621
v  3212.277100 -15013.962891 214.195984
v  1952.573120 -15363.949219 -456.786621
v  2642.405029 -14868.640625 537.256836
v  2541.674561 -16510.589844 -293.427155
v  1691.895386 -15796.890625 -59.300663
v  2802.725098 -16081.106445 -688.699890
v  1971.841064 -16364.332031 29.280943
v  1952.573120 -15363.949219 -456.786621
v  2522.406738 -15510.207031 -779.494751
v  3215.641113 -15211.752930 311.179169
v  3215.641113 -15211.752930 311.179169
v  2646.656982 -15065.712891 633.405823

vt  0.640625 -3.531250 0.000000
vt  0.531250 -3.625000 0.000000
vt  0.679688 -3.812500 0.000000
vt  0.531250 -3.312500 0.000000
vt  0.640625 -3.531250 0.000000
vt  0.679688 -3.812500 0.000000
vt  0.531250 -3.625000 0.000000
vt  0.531250 -3.312500 0.000000
vt  0.656250 -3.375000 0.000000
vt  0.695313 -3.500000 0.000000
vt  0.734375 -3.375000 0.000000
vt  0.992188 -3.968750 0.000000
vt  0.968750 -3.843750 0.000000
vt  0.992188 -3.750000 0.000000
vt  0.656250 -3.375000 0.000000
vt  0.734375 -3.375000 0.000000
vt  0.468750 -3.031250 0.000000
vt  0.507813 -3.031250 0.000000
vt  0.507813 -3.031250 0.000000
vt  0.406250 -3.937500 0.000000
vt  0.148438 -3.906250 0.000000
vt  0.406250 -3.875000 0.000000
vt  0.757813 -3.656250 0.000000
vt  0.757813 -3.500000 0.000000
vt  0.882813 -3.625000 0.000000
vt  0.757813 -3.656250 0.000000
vt  0.882813 -3.625000 0.000000
vt  0.757813 -3.500000 0.000000
vt  0.398438 -3.812500 0.000000
vt  0.085938 -3.562500 0.000000
vt  0.398438 -3.531250 0.000000
vt  0.140625 -3.812500 0.000000
vt  0.085938 -3.562500 0.000000
vt  0.054688 -3.812500 0.000000
vt  0.398438 -3.812500 0.000000
vt  0.398438 -3.531250 0.000000
vt  0.140625 -3.843750 0.000000
vt  0.281250 -3.406250 0.000000
vt  0.414063 -3.125000 0.000000
vt  0.281250 -3.125000 0.000000
vt  0.414063 -3.406250 0.000000
vt  0.414063 -3.125000 0.000000
vt  0.281250 -3.031250 0.000000
vt  0.414063 -3.031250 0.000000
vt  0.281250 -3.125000 0.000000
vt  0.437500 -3.406250 0.000000
vt  0.414063 -3.406250 0.000000
vt  0.437500 -3.125000 0.000000
vt  0.414063 -3.500000 0.000000
vt  0.281250 -3.406250 0.000000
vt  0.281250 -3.531250 0.000000
vt  0.578125 -3.250000 0.000000
vt  0.515625 -3.125000 0.000000
vt  0.484375 -3.250000 0.000000
vt  0.570313 -3.125000 0.000000
vt  0.515625 -3.125000 0.000000
vt  0.570313 -3.125000 0.000000
vt  0.718750 -3.031250 0.000000
vt  0.664063 -3.250000 0.000000
vt  0.718750 -3.281250 0.000000
vt  0.664063 -3.031250 0.000000
vt  0.398438 -3.625000 0.000000
vt  0.398438 -3.812500 0.000000
vt  0.679688 -3.875000 0.000000
vt  0.406250 -3.937500 0.000000
vt  0.406250 -3.875000 0.000000
vt  0.679688 -3.968750 0.000000
vt  0.601563 -3.031250 0.000000
vt  0.593750 -3.281250 0.000000
vt  0.398438 -3.812500 0.000000
vt  0.398438 -3.625000 0.000000
vt  0.906250 -3.750000 0.000000
vt  0.906250 -3.968750 0.000000
vt  0.523438 -3.875000 0.000000
vt  0.523438 -3.937500 0.000000
vt  0.992188 -3.625000 0.000000
vt  0.984375 -3.468750 0.000000
vt  0.882813 -3.937500 0.000000
vt  0.757813 -3.968750 0.000000
vt  0.164063 -3.093750 0.000000
vt  0.187500 -3.468750 0.000000
vt  0.187500 -3.031250 0.000000
vt  0.156250 -3.375000 0.000000
vt  0.984375 -3.312500 0.000000
vt  0.757813 -3.343750 0.000000
vt  0.210938 -3.375000 0.000000
vt  0.218750 -3.093750 0.000000
vt  0.984375 -3.031250 0.000000
vt  0.750000 -3.031250 0.000000
vt  0.757813 -3.343750 0.000000
vt  0.984375 -3.468750 0.000000
vt  0.984375 -3.312500 0.000000
vt  0.500000 -3.437500 0.000000
vt  0.484375 -3.312500 0.000000
vt  0.484375 -3.500000 0.000000
vt  0.500000 -3.343750 0.000000
vt  0.031250 -3.250000 0.000000
vt  0.148438 -3.375000 0.000000
vt  0.140625 -3.250000 0.000000
vt  0.031250 -3.375000 0.000000
vt  0.031250 -3.031250 0.000000
vt  0.140625 -3.031250 0.000000
vt  0.031250 -3.375000 0.000000
vt  0.140625 -3.250000 0.000000
vt  0.140625 -3.375000 0.000000
vt  0.031250 -3.250000 0.000000
vt  0.460938 -3.343750 0.000000
vt  0.460938 -3.437500 0.000000
vt  0.031250 -3.468750 0.000000
vt  0.140625 -3.468750 0.000000
vt  0.398438 -3.625000 0.000000
vt  0.531250 -3.625000 0.000000
vt  0.531250 -3.625000 0.000000
vt  0.398438 -3.625000 0.000000
vt  0.140625 -3.500000 0.000000
vt  0.031250 -3.468750 0.000000
vt  0.500000 -3.343750 0.000000
vt  0.484375 -3.468750 0.000000
vt  0.484375 -3.312500 0.000000
vt  0.500000 -3.437500 0.000000
vt  0.460938 -3.437500 0.000000
vt  0.460938 -3.343750 0.000000
vt  0.992188 -3.625000 0.000000
vt  0.679688 -3.875000 0.000000
vt  0.679688 -3.968750 0.000000

vn  -0.723961 -0.689765 -0.010241
vn  -0.573412 -0.150759 0.805277
vn  -0.999688 -0.015856 -0.019298
vn  -0.031989 0.027065 0.999122
vn  0.340667 -0.761748 -0.551078
vn  0.413984 -0.226046 -0.881771
vn  0.992333 -0.106427 -0.062837
vn  0.443143 -0.888360 0.120170
vn  -0.640866 -0.290075 0.710737
vn  -0.316363 0.520353 -0.793188
vn  -0.719384 -0.579129 0.383531
vn  -0.719384 -0.579129 0.383531
vn  -0.316363 0.520353 -0.793188
vn  0.404200 -0.364046 -0.839102
vn  0.522119 -0.812127 0.260466
vn  0.404200 -0.364046 -0.839102
vn  0.826483 -0.112767 0.551551
vn  -0.717639 -0.263586 0.644606
vn  -0.004311 -0.905178 -0.425012
vn  -0.816855 0.388133 -0.426733
vn  0.146927 0.972931 -0.178373
vn  0.378017 0.304103 -0.874428
vn  0.650476 0.741288 0.165450
vn  0.936749 0.278035 0.212596
vn  0.597362 0.585296 -0.548258
vn  -0.077785 0.996840 0.016095
vn  -0.518547 0.841508 0.151569
vn  -0.379998 0.492209 0.783155
vn  0.378017 0.304103 -0.874428
vn  0.597362 0.585296 -0.548258
vn  0.161281 -0.141827 -0.976664
vn  0.146927 0.972931 -0.178373
vn  -0.518547 0.841508 0.151569
vn  0.597362 0.585296 -0.548258
vn  -0.816855 0.388133 -0.426733
vn  -0.888054 0.458617 -0.032099
vn  0.146927 0.972931 -0.178373
vn  -0.538691 0.554645 0.634177
vn  -0.961518 0.271435 0.042512
vn  -0.999688 -0.015856 -0.019298
vn  0.003308 0.989474 0.144672
vn  -0.037776 0.012236 -0.999211
vn  -0.999688 -0.015856 -0.019298
vn  -0.961518 0.271435 0.042512
vn  0.413984 -0.226046 -0.881771
vn  0.003308 0.989474 0.144672
vn  0.806183 0.481133 -0.344354
vn  -0.961518 0.271435 0.042512
vn  0.003308 0.989474 0.144672
vn  0.781585 0.588578 0.206642
vn  -0.538691 0.554645 0.634177
vn  -0.356233 0.911362 -0.206198
vn  -0.997632 -0.050945 0.046198
vn  0.266146 0.960093 0.085948
vn  -0.405860 -0.674482 0.616727
vn  0.755779 -0.623972 -0.198637
vn  0.839447 -0.095650 -0.534957
vn  0.413984 -0.226046 -0.881771
vn  -0.723961 -0.689765 -0.010241
vn  -0.999688 -0.015856 -0.019298
vn  0.340667 -0.761748 -0.551078
vn  -0.490547 0.145700 0.859148
vn  0.064476 0.947122 0.314328
vn  0.413984 -0.226046 -0.881771
vn  0.064476 0.947122 0.314328
vn  0.810581 0.497807 -0.308458
vn  -0.999688 -0.015856 -0.019298
vn  0.443143 -0.888360 0.120170
vn  -0.031989 0.027065 0.999122
vn  0.810581 0.497807 -0.308458
vn  0.675719 -0.357221 0.644823
vn  0.522119 -0.812127 0.260466
vn  -0.640866 -0.290075 0.710737
vn  0.675719 -0.357221 0.644823
vn  -0.490547 0.145700 0.859148
vn  -0.888054 0.458617 -0.032099
vn  -0.849305 0.217496 0.481015
vn  0.597362 0.585296 -0.548258
vn  0.650476 0.741288 0.165450
vn  0.650476 0.741288 0.165450
vn  -0.379998 0.492209 0.783155
vn  0.936749 0.278035 0.212596
vn  -0.077785 0.996840 0.016095
vn  -0.512912 -0.571247 0.640779
vn  0.117253 -0.405787 0.906415
vn  0.117253 -0.405787 0.906415
vn  0.689821 -0.655665 0.307002
vn  0.279582 -0.922526 0.266044
vn  0.689821 -0.655665 0.307002
vn  0.689821 -0.655665 0.307002
vn  0.849300 -0.216966 -0.481265
vn  0.279582 -0.922526 0.266044
vn  -0.115396 -0.199575 0.973064
vn  0.949737 0.030190 0.311591
vn  -0.159161 0.536462 0.828780
vn  0.462207 -0.727329 0.507304
vn  -0.115396 -0.199575 0.973064
vn  -0.945413 -0.255609 -0.202136
vn  -0.431846 -0.862293 0.264500
vn  -0.159161 0.536462 0.828780
vn  0.462207 -0.727329 0.507304
vn  0.136082 -0.884117 -0.447011
vn  0.949737 0.030190 0.311591
vn  0.136082 -0.884117 -0.447011
vn  0.154946 -0.315208 -0.936288
vn  0.462207 -0.727329 0.507304
vn  0.753044 0.655585 -0.055967
vn  -0.089590 0.995490 0.031195
vn  0.753044 0.655585 -0.055967
vn  0.058989 0.593364 -0.802770
vn  -0.089590 0.995490 0.031195
vn  0.058989 0.593364 -0.802770
vn  -0.774185 0.425262 -0.468818
vn  0.753044 0.655585 -0.055967
vn  -0.774185 0.425262 -0.468818
vn  -0.089590 0.995490 0.031195
vn  0.136082 -0.884117 -0.447011
vn  -0.945413 -0.255609 -0.202136
vn  0.154946 -0.315208 -0.936288
vn  -0.431846 -0.862293 0.264500
vn  -0.774185 0.425262 -0.468818
vn  0.058989 0.593364 -0.802770
vn  0.161281 -0.141827 -0.976664
vn  0.161281 -0.141827 -0.976664
vn  -0.888054 0.458617 -0.032099

g rdmobj00
usemtl ffdtex0
f  1/1/1 2/2/2 3/3/3
f  1/1/1 4/4/4 2/2/2
f  5/5/5 6/6/6 7/7/7
f  7/7/7 8/8/8 5/5/5
f  9/9/9 10/10/10 11/11/11
f  12/12/12 13/13/13 14/14/14
f  10/10/10 15/15/15 16/16/16
f  17/17/17 18/18/18 19/19/19
f  20/20/20 21/21/21 22/22/22
f  23/23/23 24/24/24 25/25/25
f  26/26/26 27/27/27 28/28/28
f  29/29/29 30/30/30 31/31/31
f  32/32/32 33/33/33 34/34/34
f  35/35/35 36/36/36 33/33/33
f  35/35/35 33/33/33 37/37/37
f  37/37/37 30/30/30 29/29/29
f  38/38/38 39/39/39 40/40/40
f  41/41/41 39/39/39 38/38/38
f  42/42/42 43/43/43 44/44/44
f  45/45/45 43/43/43 42/42/42
f  42/42/42 46/46/46 47/47/47
f  48/48/48 46/46/46 42/42/42
f  49/49/49 50/50/50 47/47/47
f  51/51/51 50/50/50 49/49/49
f  52/52/52 53/53/53 54/54/54
f  55/55/55 53/53/53 52/52/52
f  56/56/56 17/17/17 19/19/19
f  54/54/54 17/17/17 56/56/56
f  57/57/57 54/54/54 56/56/56
f  52/52/52 54/54/54 57/57/57
f  54/54/54 18/18/18 17/17/17
f  53/53/53 18/18/18 54/54/54
f  55/55/55 56/56/56 53/53/53
f  57/57/57 56/56/56 55/55/55
f  53/53/53 19/19/19 18/18/18
f  56/56/56 19/19/19 53/53/53
f  58/58/58 59/59/59 60/60/60
f  61/61/61 59/59/59 58/58/58
f  3/3/3 62/62/62 63/63/63
f  2/2/2 62/62/62 3/3/3
f  64/64/64 65/65/65 66/66/66
f  67/67/67 65/65/65 64/64/64
f  68/68/68 59/59/59 61/61/61
f  69/69/69 59/59/59 68/68/68
f  7/7/7 70/70/70 71/71/71
f  6/6/6 70/70/70 7/7/7
f  72/72/72 12/12/12 14/14/14
f  73/73/73 12/12/12 72/72/72
f  45/45/45 47/47/47 50/50/50
f  42/42/42 47/47/47 45/45/45
f  65/65/65 74/74/74 66/66/66
f  75/75/75 74/74/74 65/65/65
f  2/2/2 71/71/71 62/62/62
f  7/7/7 71/71/71 2/2/2
f  4/4/4 7/7/7 2/2/2
f  8/8/8 7/7/7 4/4/4
f  76/76/76 28/28/28 27/27/27
f  77/77/77 28/28/28 76/76/76
f  26/26/26 78/78/78 27/27/27
f  79/79/79 78/78/78 26/26/26
f  80/80/80 81/81/81 82/82/82
f  83/83/83 81/81/81 80/80/80
f  84/84/84 28/28/28 77/77/77
f  85/85/85 28/28/28 84/84/84
f  86/86/86 82/82/82 81/81/81
f  87/87/87 82/82/82 86/86/86
f  85/85/85 88/88/88 89/89/89
f  84/84/84 88/88/88 85/85/85
f  90/90/90 91/91/91 24/24/24
f  92/92/92 91/91/91 90/90/90
f  93/93/93 94/94/94 95/95/95
f  96/96/96 94/94/94 93/93/93
f  97/97/97 98/98/98 99/99/99
f  100/100/100 98/98/98 97/97/97
f  101/101/101 99/99/99 102/102/102
f  97/97/97 99/99/99 101/101/101
f  103/103/103 104/104/104 105/105/105
f  106/106/106 104/104/104 103/103/103
f  107/107/107 95/95/95 94/94/94
f  108/108/108 95/95/95 107/107/107
f  109/109/109 105/105/105 110/110/110
f  103/103/103 105/105/105 109/109/109
f  111/111/111 112/112/112 113/113/113
f  114/114/114 112/112/112 111/111/111
f  100/100/100 115/115/115 98/98/98
f  116/116/116 115/115/115 100/100/100
f  117/117/117 118/118/118 119/119/119
f  120/120/120 118/118/118 117/117/117
f  121/121/121 119/119/119 118/118/118
f  122/122/122 119/119/119 121/121/121
f  91/91/91 25/25/25 24/24/24
f  123/123/123 25/25/25 91/91/91
f  20/20/20 124/124/124 125/125/125
f  22/22/22 124/124/124 20/20/20

g
